<svg width="200" height="200" fill="none" xmlns="http://www.w3.org/2000/svg">
    <path d="M87.5 25H75v12.5h12.5V25ZM100 25H87.5v12.5H100V25ZM75 25H62.5v12.5H75V25ZM62.5 25H50v12.5h12.5V25ZM150 37.5h-12.5V50H150V37.5ZM37.5 37.5H25V50h12.5V37.5ZM37.5 50H25v12.5h12.5V50ZM162.5 62.5H150V75h12.5V62.5ZM25 62.5H12.5V75H25V62.5ZM162.5 75H150v12.5h12.5V75ZM25 75H12.5v12.5H25V75ZM162.5 87.5H150V100h12.5V87.5ZM25 87.5H12.5V100H25V87.5ZM175 100h-12.5v12.5H175V100ZM162.5 100H150v12.5h12.5V100ZM150 62.5h-12.5V75H150V62.5ZM150 75h-12.5v12.5H150V75ZM150 87.5h-12.5V100H150V87.5ZM25 100H12.5v12.5H25V100ZM175 112.5h-12.5V125H175v-12.5ZM150 50h-12.5v12.5H150V50ZM162.5 50H150v12.5h12.5V50Z" fill="#F5E9D3"/>
    <path d="M162.5 0H150v12.5h12.5V0ZM175 0h-12.5v12.5H175V0ZM150 0h-12.5v12.5H150V0ZM137.5 0H125v12.5h12.5V0ZM125 0h-12.5v12.5H125V0ZM112.5 0H100v12.5h12.5V0ZM100 0H87.5v12.5H100V0ZM87.5 0H75v12.5h12.5V0ZM75 0H62.5v12.5H75V0ZM62.5 0H50v12.5h12.5V0ZM50 0H37.5v12.5H50V0ZM37.5 0H25v12.5h12.5V0ZM187.5 12.5H175V25h12.5V12.5ZM175 12.5h-12.5V25H175V12.5ZM162.5 12.5H150V25h12.5V12.5ZM150 12.5h-12.5V25H150V12.5ZM137.5 12.5H125V25h12.5V12.5ZM125 12.5h-12.5V25H125V12.5ZM112.5 12.5H100V25h12.5V12.5ZM100 12.5H87.5V25H100V12.5ZM87.5 12.5H75V25h12.5V12.5ZM75 12.5H62.5V25H75V12.5ZM62.5 12.5H50V25h12.5V12.5ZM50 12.5H37.5V25H50V12.5ZM37.5 12.5H25V25h12.5V12.5ZM25 12.5H12.5V25H25V12.5ZM200 25h-12.5v12.5H200V25ZM187.5 25H175v12.5h12.5V25ZM175 25h-12.5v12.5H175V25ZM162.5 25H150v12.5h12.5V25ZM150 25h-12.5v12.5H150V25ZM137.5 25H125v12.5h12.5V25ZM125 25h-12.5v12.5H125V25ZM112.5 25H100v12.5h12.5V25ZM62.5 25H50v12.5h12.5V25ZM75 25H62.5v12.5H75V25ZM87.5 25H75v12.5h12.5V25ZM100 25H87.5v12.5H100V25ZM50 25H37.5v12.5H50V25ZM37.5 25H25v12.5h12.5V25ZM25 25H12.5v12.5H25V25ZM12.5 25H0v12.5h12.5V25ZM200 37.5h-12.5V50H200V37.5ZM187.5 37.5H175V50h12.5V37.5ZM175 37.5h-12.5V50H175V37.5ZM162.5 37.5H150V50h12.5V37.5ZM25 37.5H12.5V50H25V37.5ZM12.5 37.5H0V50h12.5V37.5ZM200 50h-12.5v12.5H200V50ZM187.5 50H175v12.5h12.5V50ZM175 50h-12.5v12.5H175V50ZM25 50H12.5v12.5H25V50ZM37.5 37.5H25V50h12.5V37.5ZM37.5 50H25v12.5h12.5V50ZM12.5 50H0v12.5h12.5V50ZM200 62.5h-12.5V75H200V62.5ZM187.5 62.5H175V75h12.5V62.5ZM175 62.5h-12.5V75H175V62.5ZM162.5 62.5H150V75h12.5V62.5ZM162.5 75H150v12.5h12.5V75ZM162.5 87.5H150V100h12.5V87.5ZM12.5 62.5H0V75h12.5V62.5ZM200 75h-12.5v12.5H200V75ZM187.5 75H175v12.5h12.5V75ZM175 75h-12.5v12.5H175V75ZM12.5 75H0v12.5h12.5V75ZM200 87.5h-12.5V100H200V87.5ZM187.5 87.5H175V100h12.5V87.5ZM175 87.5h-12.5V100H175V87.5ZM175 100h-12.5v12.5H175V100ZM12.5 87.5H0V100h12.5V87.5ZM25 62.5H12.5V75H25V62.5ZM25 75H12.5v12.5H25V75ZM25 87.5H12.5V100H25V87.5ZM25 100H12.5v12.5H25V100ZM200 100h-12.5v12.5H200V100ZM187.5 100H175v12.5h12.5V100ZM12.5 100H0v12.5h12.5V100ZM200 112.5h-12.5V125H200v-12.5ZM200 125h-12.5v12.5H200V125ZM187.5 112.5H175V125h12.5v-12.5ZM12.5 112.5H0V125h12.5v-12.5ZM12.5 150H0v12.5h12.5V150ZM200 150h-12.5v12.5H200V150ZM187.5 162.5H175V175h12.5v-12.5ZM200 162.5h-12.5V175H200v-12.5ZM25 162.5H12.5V175H25v-12.5ZM12.5 162.5H0V175h12.5v-12.5ZM187.5 175H175v12.5h12.5V175ZM175 175h-12.5v12.5H175V175ZM37.5 175H25v12.5h12.5V175ZM25 175H12.5v12.5H25V175ZM162.5 50H150v12.5h12.5V50ZM150 37.5h-12.5V50H150V37.5ZM150 62.5h-12.5V75H150V62.5ZM150 75h-12.5v12.5H150V75ZM162.5 100H150v12.5h12.5V100ZM175 112.5h-12.5V125H175v-12.5ZM175 125h-12.5v12.5H175V125ZM187.5 125H175v12.5h12.5V125ZM150 87.5h-12.5V100H150V87.5ZM150 50h-12.5v12.5H150V50Z" fill="#000"/>
    <path d="M137.5 37.5H125V50h12.5V37.5ZM125 37.5h-12.5V50H125V37.5ZM112.5 37.5H100V50h12.5V37.5ZM100 37.5H87.5V50H100V37.5ZM87.5 37.5H75V50h12.5V37.5ZM75 37.5H62.5V50H75V37.5ZM62.5 37.5H50V50h12.5V37.5ZM50 37.5H37.5V50H50V37.5ZM137.5 50H125v12.5h12.5V50ZM125 50h-12.5v12.5H125V50ZM112.5 50H100v12.5h12.5V50ZM100 50H87.5v12.5H100V50ZM87.5 50H75v12.5h12.5V50ZM75 50H62.5v12.5H75V50ZM62.5 50H50v12.5h12.5V50ZM50 50H37.5v12.5H50V50ZM112.5 62.5H100V75h12.5V62.5ZM100 62.5H87.5V75H100V62.5ZM87.5 62.5H75V75h12.5V62.5ZM75 62.5H62.5V75H75V62.5ZM37.5 62.5H25V75h12.5V62.5ZM125 75h-12.5v12.5H125V75ZM112.5 75H100v12.5h12.5V75ZM100 75H87.5v12.5H100V75ZM87.5 75H75v12.5h12.5V75ZM75 75H62.5v12.5H75V75ZM75 87.5H62.5V100H75V87.5ZM75 100H62.5v12.5H75V100ZM37.5 75H25v12.5h12.5V75ZM112.5 87.5H100V100h12.5V87.5ZM100 87.5H87.5V100H100V87.5ZM87.5 87.5H75V100h12.5V87.5ZM37.5 87.5H25V100h12.5V87.5ZM137.5 75H125v12.5h12.5V75ZM150 100h-12.5v12.5H150V100ZM112.5 100H100v12.5h12.5V100ZM100 100H87.5v12.5H100V100ZM87.5 100H75v12.5h12.5V100ZM37.5 100H25v12.5h12.5V100ZM162.5 112.5H150V125h12.5v-12.5ZM150 112.5h-12.5V125H150v-12.5ZM137.5 112.5H125V125h12.5v-12.5ZM125 112.5h-12.5V125H125v-12.5ZM112.5 112.5H100V125h12.5v-12.5ZM100 112.5H87.5V125H100v-12.5ZM87.5 112.5H75V125h12.5v-12.5ZM75 112.5H62.5V125H75v-12.5ZM62.5 112.5H50V125h12.5v-12.5ZM50 112.5H37.5V125H50v-12.5ZM37.5 112.5H25V125h12.5v-12.5ZM25 112.5H12.5V125H25v-12.5ZM175 125h-12.5v12.5H175V125ZM162.5 125H150v12.5h12.5V125ZM150 125h-12.5v12.5H150V125ZM137.5 125H125v12.5h12.5V125ZM125 125h-12.5v12.5H125V125ZM112.5 125H100v12.5h12.5V125ZM100 125H87.5v12.5H100V125ZM87.5 125H75v12.5h12.5V125ZM75 125H62.5v12.5H75V125ZM62.5 125H50v12.5h12.5V125ZM50 125H37.5v12.5H50V125ZM37.5 125H25v12.5h12.5V125ZM25 125H12.5v12.5H25V125ZM12.5 125H0v12.5h12.5V125ZM200 137.5h-12.5V150H200v-12.5ZM187.5 137.5H175V150h12.5v-12.5ZM200 125h-12.5v12.5H200V125ZM187.5 125H175v12.5h12.5V125ZM175 137.5h-12.5V150H175v-12.5ZM162.5 137.5H150V150h12.5v-12.5ZM150 137.5h-12.5V150H150v-12.5ZM137.5 137.5H125V150h12.5v-12.5ZM125 137.5h-12.5V150H125v-12.5ZM112.5 137.5H100V150h12.5v-12.5ZM100 137.5H87.5V150H100v-12.5ZM87.5 137.5H75V150h12.5v-12.5ZM112.5 150H100v12.5h12.5V150ZM100 150H87.5v12.5H100V150ZM87.5 150H75v12.5h12.5V150ZM75 137.5H62.5V150H75v-12.5ZM62.5 137.5H50V150h12.5v-12.5ZM50 137.5H37.5V150H50v-12.5ZM37.5 137.5H25V150h12.5v-12.5ZM25 137.5H12.5V150H25v-12.5ZM12.5 137.5H0V150h12.5v-12.5ZM187.5 150H175v12.5h12.5V150ZM175 150h-12.5v12.5H175V150ZM162.5 150H150v12.5h12.5V150ZM150 150h-12.5v12.5H150V150ZM137.5 150H125v12.5h12.5V150ZM125 150h-12.5v12.5H125V150ZM75 150H62.5v12.5H75V150ZM62.5 150H50v12.5h12.5V150ZM50 150H37.5v12.5H50V150ZM37.5 150H25v12.5h12.5V150ZM25 150H12.5v12.5H25V150ZM175 162.5h-12.5V175H175v-12.5ZM162.5 162.5H150V175h12.5v-12.5ZM150 162.5h-12.5V175H150v-12.5ZM137.5 162.5H125V175h12.5v-12.5ZM125 162.5h-12.5V175H125v-12.5ZM112.5 162.5H100V175h12.5v-12.5ZM100 162.5H87.5V175H100v-12.5ZM87.5 162.5H75V175h12.5v-12.5ZM75 162.5H62.5V175H75v-12.5ZM62.5 162.5H50V175h12.5v-12.5ZM50 162.5H37.5V175H50v-12.5ZM37.5 162.5H25V175h12.5v-12.5ZM150 175h-12.5v12.5H150V175ZM137.5 175H125v12.5h12.5V175ZM125 175h-12.5v12.5H125V175ZM112.5 175H100v12.5h12.5V175ZM100 175H87.5v12.5H100V175ZM87.5 175H75v12.5h12.5V175ZM75 175H62.5v12.5H75V175ZM62.5 175H50v12.5h12.5V175ZM137.5 187.5H125V200h12.5v-12.5ZM125 187.5h-12.5V200H125v-12.5ZM112.5 187.5H100V200h12.5v-12.5ZM100 187.5H87.5V200H100v-12.5ZM87.5 187.5H75V200h12.5v-12.5ZM75 187.5H62.5V200H75v-12.5Z" fill="#F5E9D3"/>
    <path d="M162.5 175H150v12.5h12.5V175Z" fill="#000"/>
    <path d="M50 175H37.5v12.5H50V175Z" fill="#303030"/>
    <path d="M162.5 175H150v12.5h12.5V175ZM50 175H37.5v12.5H50V175Z" fill="#F5E9D3"/>
    <path d="M50 75H37.5v12.5H50V75ZM62.5 75H50v12.5h12.5V75ZM112.5 150H100v12.5h12.5V150ZM100 150H87.5v12.5H100V150ZM87.5 150H75v12.5h12.5V150Z" fill="#FCA192"/>
    <path d="M137.5 87.5H125V100h12.5V87.5Z" fill="#fff"/>
    <path d="M125 87.5h-12.5V100H125V87.5ZM125 100h-12.5v12.5H125V100ZM137.5 100H125v12.5h12.5V100ZM125 62.5h-12.5V75H125V62.5ZM50 62.5H37.5V75H50V62.5ZM137.5 62.5H125V75h12.5V62.5ZM62.5 62.5H50V75h12.5V62.5ZM50 87.5H37.5V100H50V87.5Z" fill="#000"/>
    <path d="M62.5 87.5H50V100h12.5V87.5Z" fill="#fff"/>
    <path d="M62.5 100H50v12.5h12.5V100ZM50 100H37.5v12.5H50V100Z" fill="#000"/>
</svg>
